<svg xmlns="http://www.w3.org/2000/svg">

    <symbol viewBox="0 0 32 32" id="cross">
        <path d="M21.7857 12.43C22.3244 11.9279 22.3541 11.0842 21.852 10.5456C21.35 10.0069 20.5062 9.97718 19.9676 10.4793L16.0661 14.1155L12.4298 10.2141C11.9277 9.67537 11.084 9.64569 10.5453 10.1478C10.0066 10.6498 9.97694 11.4935 10.479 12.0322L14.1153 15.9337L10.2138 19.5701C9.67513 20.0721 9.64545 20.9158 10.1475 21.4545C10.6496 21.9931 11.4933 22.0229 12.032 21.5207L15.9334 17.8845L19.5698 21.7859C20.0718 22.3246 20.9156 22.3543 21.4542 21.8522C21.9929 21.3502 22.0226 20.5065 21.5205 19.9678L17.8842 16.0663L21.7857 12.43Z"/>
    </symbol>

</svg>
